<svg width="40" height="40" viewBox="0 0 40 40" fill="none" xmlns="http://www.w3.org/2000/svg">
  <rect width="40" height="40" rx="10" fill="url(#g)"/>
  <path d="M20 8C13.373 8 8 13.373 8 20C8 26.627 13.373 32 20 32C23.314 32 26.314 30.657 28.486 28.486L31 31L33 29L30.486 26.486C31.81 24.628 32.585 22.372 32.585 19.94C32.585 13.343 27.212 8 20 8ZM20 28C15.582 28 12 24.418 12 20C12 15.582 15.582 12 20 12C24.418 12 28 15.582 28 20C28 22.21 27.107 24.21 25.658 25.658L22 22L20 24L23.658 27.658C22.552 28.21 21.314 28 20 28Z" fill="#0B0E11" fill-opacity="0.9"/>
  <defs>
    <linearGradient id="g" x1="0" y1="0" x2="40" y2="40">
      <stop stop-color="#F0B90B"/>
      <stop offset="1" stop-color="#F8D12F"/>
    </linearGradient>
  </defs>
</svg>
